<svg width="3218" height="372" viewBox="0 0 3218 372" fill="none" xmlns="http://www.w3.org/2000/svg">
<path d="M21.6211 24.9316H135.952V31.2549C129.914 31.2549 124.958 31.8815 121.084 33.1348C117.21 34.388 114.134 36.097 111.855 38.2617C109.577 40.4264 107.982 42.876 107.07 45.6104C106.273 48.3447 105.874 51.25 105.874 54.3262V172.075C105.874 192.583 104.393 211.154 101.431 227.788C98.4684 244.308 94.5947 259.119 89.8096 272.222C85.0244 285.438 79.5557 297.059 73.4033 307.085C67.251 317.225 60.9847 325.941 54.6045 333.232C39.5654 350.436 22.4756 363.197 3.33496 371.514L0.258789 365.874C9.8291 356.759 18.374 344.967 25.8936 330.498C29.0837 324.346 32.2168 317.339 35.293 309.478C38.3691 301.616 41.1035 292.786 43.4961 282.988C46.0026 273.304 47.9964 262.651 49.4775 251.03C50.9587 239.295 51.6992 226.592 51.6992 212.92V53.6426C51.6992 51.3639 51.2435 48.9144 50.332 46.2939C49.5345 43.6735 47.9964 41.2809 45.7178 39.1162C43.5531 36.8376 40.5339 34.9577 36.6602 33.4766C32.7865 31.9954 27.7734 31.2549 21.6211 31.2549V24.9316ZM199.28 163.188C199.052 165.695 198.938 168.145 198.938 170.537C198.938 172.816 198.938 175.151 198.938 177.544C198.938 188.368 199.622 198.906 200.989 209.16C202.356 219.414 204.863 228.529 208.509 236.504C212.269 244.479 217.452 250.973 224.061 255.986C230.669 260.885 239.214 263.449 249.695 263.677C256.417 263.677 262.399 262.594 267.64 260.43C272.994 258.265 277.666 255.303 281.653 251.543C285.641 247.669 289.059 243.169 291.907 238.042C294.756 232.915 297.148 227.332 299.085 221.294L339.417 234.966C335.315 240.776 330.416 246.131 324.72 251.03C319.023 255.929 312.472 260.202 305.066 263.848C297.775 267.38 289.572 270.171 280.457 272.222C271.456 274.272 261.544 275.298 250.721 275.298C238.53 275.298 227.479 273.931 217.566 271.196C207.654 268.576 198.768 264.93 190.906 260.259C183.159 255.588 176.38 250.119 170.569 243.853C164.873 237.472 160.088 230.693 156.214 223.516C152.454 216.338 149.663 208.875 147.84 201.128C146.017 193.381 145.105 185.747 145.105 178.228C145.105 171.05 145.903 163.701 147.498 156.182C149.207 148.548 151.827 141.086 155.359 133.794C158.891 126.502 163.335 119.666 168.689 113.286C174.158 106.792 180.652 101.095 188.172 96.1963C195.805 91.2972 204.521 87.4235 214.319 84.5752C224.118 81.7269 235.112 80.3027 247.303 80.3027C265.19 80.3027 280.4 82.5244 292.933 86.9678C305.579 91.4111 315.947 97.4495 324.036 105.083C332.239 112.603 338.335 121.375 342.322 131.401C346.424 141.427 348.93 152.023 349.842 163.188H199.28ZM248.328 92.2656C240.011 92.2656 232.947 93.8037 227.137 96.8799C221.44 99.9561 216.712 104.172 212.952 109.526C209.192 114.881 206.287 121.204 204.236 128.496C202.299 135.674 200.875 143.421 199.964 151.738H296.351C295.667 143.535 294.414 135.845 292.591 128.667C290.882 121.489 288.204 115.223 284.559 109.868C281.027 104.399 276.299 100.127 270.374 97.0508C264.563 93.8607 257.215 92.2656 248.328 92.2656ZM415.733 273.418C407.644 273.418 401.036 273.133 395.909 272.563C390.896 272.108 386.738 271.538 383.434 270.854C380.243 270.171 377.623 269.601 375.572 269.146C373.521 268.576 371.414 268.291 369.249 268.291C370.16 264.417 370.787 260.885 371.129 257.695C371.471 254.505 371.642 251.6 371.642 248.979C371.642 245.106 371.3 241.517 370.616 238.213C369.933 234.795 369.135 231.263 368.224 227.617L374.034 227.275C376.541 232.744 380.187 237.586 384.972 241.802C389.871 245.903 395.283 249.378 401.207 252.227C407.245 255.075 413.512 257.24 420.006 258.721C426.5 260.202 432.652 260.942 438.463 260.942C445.641 260.942 452.021 260.031 457.604 258.208C463.186 256.271 467.914 253.651 471.788 250.347C475.662 247.043 478.567 243.112 480.504 238.555C482.555 233.997 483.58 228.984 483.58 223.516C483.58 217.705 482.384 212.977 479.991 209.331C477.713 205.571 474.522 202.552 470.421 200.273C466.319 197.995 461.534 196.343 456.065 195.317C450.597 194.178 444.729 193.267 438.463 192.583C433.678 192.127 428.551 191.558 423.082 190.874C417.613 190.19 412.145 189.165 406.676 187.798C401.207 186.431 395.909 184.608 390.782 182.329C385.769 180.05 381.326 177.145 377.452 173.613C373.578 170.081 370.445 165.809 368.053 160.796C365.774 155.669 364.635 149.631 364.635 142.681C364.635 134.478 366.287 127.3 369.591 121.147C372.895 114.995 377.224 109.697 382.579 105.254C388.048 100.811 394.314 97.1647 401.378 94.3164C408.442 91.4681 415.676 89.2464 423.082 87.6514C430.602 85.9424 438.007 84.7461 445.299 84.0625C452.704 83.3789 459.426 83.0371 465.465 83.0371C476.174 83.0371 485.517 83.6068 493.492 84.7461C501.581 85.7715 508.36 86.2842 513.829 86.2842C512.69 90.2718 511.892 94.1455 511.437 97.9053C511.095 101.551 510.924 104.798 510.924 107.646C510.924 111.292 511.209 114.824 511.778 118.242C512.462 121.546 513.373 125.021 514.513 128.667L508.531 129.009C506.48 124.224 504.487 119.837 502.55 115.85C500.727 111.748 497.879 108.273 494.005 105.425C490.245 102.463 484.947 100.184 478.111 98.5889C471.275 96.8799 461.819 96.0254 449.742 96.0254C445.868 96.0254 441.824 96.709 437.608 98.0762C433.393 99.3294 429.519 101.323 425.987 104.058C422.569 106.678 419.721 109.982 417.442 113.97C415.164 117.957 414.024 122.629 414.024 127.983C414.024 135.047 415.562 140.63 418.639 144.731C421.829 148.833 425.646 152.023 430.089 154.302C434.532 156.466 439.146 157.948 443.932 158.745C448.717 159.429 452.761 159.884 456.065 160.112C460.167 160.454 464.895 160.967 470.25 161.65C475.719 162.334 481.244 163.416 486.827 164.897C492.524 166.265 498.106 168.088 503.575 170.366C509.044 172.645 513.943 175.607 518.272 179.253C522.602 182.899 526.077 187.342 528.697 192.583C531.318 197.71 532.628 203.805 532.628 210.869C532.628 220.212 530.919 228.244 527.501 234.966C524.083 241.688 519.412 247.384 513.487 252.056C507.677 256.613 500.841 260.316 492.979 263.164C485.232 266.012 477.029 268.177 468.37 269.658C459.711 271.139 450.882 272.108 441.881 272.563C432.88 273.133 424.164 273.418 415.733 273.418ZM634.066 92.6074C629.281 92.6074 625.408 93.1201 622.445 94.1455C619.483 95.057 617.147 96.3672 615.438 98.0762C613.729 99.6712 612.533 101.551 611.85 103.716C611.28 105.767 610.995 107.988 610.995 110.381V211.553C610.995 220.439 612.362 227.959 615.097 234.111C617.831 240.264 621.363 245.163 625.692 248.809C630.022 252.34 634.807 254.676 640.048 255.815C645.403 256.955 650.644 256.898 655.771 255.645C663.062 253.936 669.499 250.916 675.082 246.587C680.665 242.144 685.336 236.789 689.096 230.522C692.969 224.256 695.875 217.306 697.812 209.673C699.862 201.925 700.888 193.893 700.888 185.576V110.381C700.888 108.672 700.603 106.792 700.033 104.741C699.577 102.69 698.495 100.811 696.786 99.1016C695.191 97.2786 692.855 95.7406 689.779 94.4873C686.817 93.234 682.829 92.6074 677.816 92.6074V86.2842H775.741V92.6074C771.07 92.6074 767.196 93.1201 764.12 94.1455C761.158 95.057 758.822 96.3672 757.113 98.0762C755.404 99.6712 754.208 101.551 753.524 103.716C752.955 105.767 752.67 107.988 752.67 110.381V245.903C752.67 247.612 752.955 249.492 753.524 251.543C754.094 253.594 755.176 255.531 756.771 257.354C758.367 259.062 760.645 260.544 763.607 261.797C766.684 263.05 770.728 263.677 775.741 263.677V270H700.888V235.308C698.495 239.751 695.647 244.08 692.343 248.296C689.039 252.511 685.108 256.385 680.551 259.917C675.993 263.449 670.753 266.582 664.828 269.316C659.018 271.937 652.466 273.931 645.175 275.298C635.491 277.007 626.718 277.292 618.856 276.152C610.995 275.013 603.931 272.848 597.665 269.658C591.513 266.468 586.158 262.424 581.601 257.524C577.043 252.511 573.227 246.986 570.15 240.947C567.188 234.909 564.966 228.472 563.485 221.636C562.004 214.8 561.264 207.964 561.264 201.128V109.355C561.264 107.646 560.922 105.824 560.238 103.887C559.669 101.95 558.529 100.184 556.82 98.5889C555.111 96.8799 552.719 95.4557 549.643 94.3164C546.68 93.1771 542.864 92.6074 538.192 92.6074V86.2842H634.066V92.6074ZM784.382 97.0508C787.572 90.7845 789.566 84.5752 790.363 78.4229C791.275 72.1566 791.73 66.6878 791.73 62.0166C791.73 60.7633 791.674 59.681 791.56 58.7695C791.56 57.7441 791.56 56.8896 791.56 56.2061C791.446 55.4085 791.389 54.668 791.389 53.9844L797.712 52.959C798.054 58.0859 799.421 62.4723 801.813 66.1182C804.32 69.764 807.339 72.8402 810.871 75.3467C814.517 77.7393 818.505 79.6761 822.834 81.1572C827.163 82.6383 831.436 83.7777 835.651 84.5752C839.867 85.2588 843.741 85.7145 847.272 85.9424C850.918 86.1702 853.881 86.2842 856.159 86.2842H989.802C986.726 92.6644 984.732 98.9307 983.82 105.083C982.909 111.235 982.453 116.647 982.453 121.318C982.453 122.572 982.453 123.711 982.453 124.736C982.453 125.648 982.51 126.445 982.624 127.129C982.624 127.926 982.681 128.667 982.795 129.351L976.643 130.376C976.187 125.249 974.706 120.863 972.199 117.217C969.807 113.571 966.787 110.552 963.142 108.159C959.61 105.653 955.679 103.659 951.35 102.178C947.02 100.697 942.748 99.6143 938.532 98.9307C934.431 98.1331 930.557 97.6204 926.911 97.3926C923.265 97.1647 920.36 97.0508 918.195 97.0508H914.948C904.125 97.6204 894.44 100.298 885.896 105.083C877.465 109.754 870.287 115.964 864.362 123.711C858.552 131.344 854.051 140.117 850.861 150.029C847.785 159.941 846.19 170.309 846.076 181.133C846.076 191.956 846.988 202.381 848.811 212.407C850.633 222.319 853.539 231.092 857.526 238.726C861.514 246.359 866.755 252.454 873.249 257.012C879.743 261.455 887.604 263.677 896.833 263.677C903.555 263.677 909.366 262.594 914.265 260.43C919.164 258.265 923.379 255.303 926.911 251.543C930.443 247.669 933.462 243.169 935.969 238.042C938.475 232.915 940.697 227.332 942.634 221.294L982.795 234.966C978.693 240.776 973.965 246.131 968.61 251.03C963.369 255.929 957.274 260.202 950.324 263.848C943.488 267.38 935.741 270.171 927.082 272.222C918.423 274.272 908.682 275.298 897.858 275.298C886.351 275.298 875.812 274.045 866.242 271.538C856.786 269.032 848.241 265.557 840.607 261.113C833.088 256.67 826.48 251.486 820.783 245.562C815.201 239.523 810.529 233.029 806.77 226.079C803.01 219.129 800.218 211.895 798.396 204.375C796.573 196.855 795.661 189.336 795.661 181.816C795.661 172.246 797.085 163.188 799.934 154.644C802.782 145.985 806.883 138.066 812.238 130.889C817.707 123.597 824.429 117.103 832.404 111.406C840.38 105.71 849.494 100.924 859.748 97.0508H784.382ZM998.613 178.228C998.613 171.05 999.525 163.701 1001.35 156.182C1003.17 148.548 1005.96 141.086 1009.72 133.794C1013.48 126.502 1018.21 119.666 1023.91 113.286C1029.72 106.792 1036.5 101.095 1044.24 96.1963C1052.1 91.2972 1060.99 87.4235 1070.9 84.5752C1080.93 81.7269 1092.04 80.3027 1104.23 80.3027C1116.99 80.3027 1128.44 81.613 1138.58 84.2334C1148.83 86.8538 1157.89 90.4997 1165.75 95.1709C1173.61 99.7282 1180.39 105.14 1186.09 111.406C1191.79 117.673 1196.46 124.451 1200.1 131.743C1203.75 139.035 1206.43 146.668 1208.13 154.644C1209.84 162.505 1210.7 170.366 1210.7 178.228C1210.7 185.747 1209.84 193.381 1208.13 201.128C1206.43 208.761 1203.69 216.167 1199.93 223.345C1196.29 230.522 1191.61 237.301 1185.92 243.682C1180.34 249.948 1173.56 255.417 1165.58 260.088C1157.72 264.759 1148.66 268.462 1138.41 271.196C1128.27 273.931 1116.88 275.298 1104.23 275.298C1092.04 275.298 1080.99 273.931 1071.07 271.196C1061.16 268.576 1052.28 264.93 1044.41 260.259C1036.67 255.588 1029.89 250.119 1024.08 243.853C1018.38 237.472 1013.6 230.693 1009.72 223.516C1005.96 216.338 1003.17 208.875 1001.35 201.128C999.525 193.381 998.613 185.747 998.613 178.228ZM1050.74 177.544C1050.74 188.368 1051.48 198.906 1052.96 209.16C1054.55 219.414 1057.29 228.529 1061.16 236.504C1065.15 244.479 1070.5 250.973 1077.23 255.986C1084.06 260.885 1092.72 263.449 1103.2 263.677C1110.15 263.677 1116.36 262.537 1121.83 260.259C1127.3 257.866 1132.08 254.619 1136.19 250.518C1140.29 246.416 1143.76 241.631 1146.61 236.162C1149.46 230.693 1151.8 224.826 1153.62 218.56C1155.44 212.293 1156.75 205.799 1157.55 199.077C1158.46 192.355 1159.03 185.69 1159.26 179.082C1159.26 172.36 1158.92 165.524 1158.23 158.574C1157.55 151.624 1156.41 144.959 1154.81 138.579C1153.22 132.085 1151.05 126.047 1148.32 120.464C1145.7 114.767 1142.4 109.868 1138.41 105.767C1134.42 101.551 1129.69 98.2471 1124.22 95.8545C1118.87 93.4619 1112.6 92.2656 1105.42 92.2656C1094.94 92.2656 1086.23 94.6582 1079.28 99.4434C1072.33 104.115 1066.74 110.381 1062.53 118.242C1058.31 126.104 1055.29 135.218 1053.47 145.586C1051.76 155.84 1050.85 166.493 1050.74 177.544ZM1320.51 270H1224.47V263.677C1229.25 263.677 1233.12 263.221 1236.09 262.31C1239.16 261.284 1241.56 259.974 1243.26 258.379C1244.97 256.67 1246.11 254.79 1246.68 252.739C1247.37 250.575 1247.71 248.296 1247.71 245.903V109.697C1247.71 107.988 1247.37 106.165 1246.68 104.229C1246.11 102.178 1244.97 100.355 1243.26 98.7598C1241.56 97.0508 1239.16 95.6836 1236.09 94.6582C1233.12 93.5189 1229.25 92.9492 1224.47 92.9492V86.2842H1320.51V92.9492C1315.95 92.9492 1312.14 93.4049 1309.06 94.3164C1306.1 95.2279 1303.71 96.4242 1301.88 97.9053C1300.17 99.3864 1298.98 101.152 1298.29 103.203C1297.61 105.14 1297.27 107.191 1297.27 109.355V152.764C1301.26 160.625 1306.04 169.056 1311.62 178.057C1317.21 186.943 1323.76 195.83 1331.28 204.717C1338.8 213.604 1347.4 222.148 1357.08 230.352C1366.77 238.555 1377.65 245.846 1389.72 252.227V110.723C1389.72 109.014 1389.44 107.134 1388.87 105.083C1388.41 102.918 1387.33 100.981 1385.62 99.2725C1384.03 97.4495 1381.69 95.9684 1378.62 94.8291C1375.65 93.5758 1371.67 92.9492 1366.65 92.9492V86.2842H1462.53V92.9492C1457.97 92.9492 1454.21 93.4049 1451.25 94.3164C1448.29 95.2279 1445.89 96.4242 1444.07 97.9053C1442.36 99.3864 1441.17 101.152 1440.48 103.203C1439.8 105.14 1439.46 107.191 1439.46 109.355V246.929C1439.46 248.638 1439.74 250.461 1440.31 252.397C1440.99 254.334 1442.19 256.157 1443.9 257.866C1445.61 259.461 1447.94 260.828 1450.91 261.968C1453.87 263.107 1457.74 263.677 1462.53 263.677V270H1389.72C1381.41 267.949 1372.92 264.474 1364.26 259.575C1355.72 254.676 1347.4 249.15 1339.31 242.998C1331.33 236.732 1323.7 230.181 1316.41 223.345C1309.23 216.509 1302.85 210.129 1297.27 204.204V245.903C1297.27 247.612 1297.55 249.492 1298.12 251.543C1298.69 253.594 1299.78 255.531 1301.37 257.354C1303.08 259.062 1305.41 260.544 1308.38 261.797C1311.45 263.05 1315.5 263.677 1320.51 263.677V270ZM1568.41 270H1472.36V263.677C1477.15 263.677 1481.02 263.221 1483.99 262.31C1487.06 261.284 1489.45 259.974 1491.16 258.379C1492.87 256.67 1494.01 254.79 1494.58 252.739C1495.26 250.575 1495.61 248.296 1495.61 245.903V110.723C1495.61 109.014 1495.32 107.134 1494.75 105.083C1494.18 102.918 1493.04 100.981 1491.33 99.2725C1489.74 97.4495 1487.4 95.9684 1484.33 94.8291C1481.36 93.5758 1477.38 92.9492 1472.36 92.9492V86.2842H1568.41V92.9492C1563.85 92.9492 1560.04 93.4049 1556.96 94.3164C1554 95.2279 1551.6 96.4242 1549.78 97.9053C1548.07 99.3864 1546.88 101.152 1546.19 103.203C1545.51 105.14 1545.17 107.191 1545.17 109.355V245.903C1545.17 247.612 1545.45 249.492 1546.02 251.543C1546.59 253.594 1547.67 255.531 1549.27 257.354C1550.98 259.062 1553.31 260.544 1556.28 261.797C1559.35 263.05 1563.4 263.677 1568.41 263.677V270ZM1494.07 40.8252C1494.07 37.1794 1494.75 33.7614 1496.12 30.5713C1497.6 27.2673 1499.54 24.4189 1501.93 22.0264C1504.32 19.6338 1507.11 17.7539 1510.3 16.3867C1513.61 14.9056 1517.08 14.165 1520.73 14.165C1524.37 14.165 1527.79 14.9056 1530.98 16.3867C1534.29 17.7539 1537.13 19.6338 1539.53 22.0264C1541.92 24.4189 1543.8 27.2673 1545.17 30.5713C1546.65 33.7614 1547.39 37.1794 1547.39 40.8252C1547.39 44.471 1546.65 47.946 1545.17 51.25C1543.8 54.4401 1541.92 57.2314 1539.53 59.624C1537.13 62.0166 1534.29 63.8965 1530.98 65.2637C1527.79 66.6309 1524.37 67.3145 1520.73 67.3145C1517.08 67.3145 1513.61 66.6309 1510.3 65.2637C1507.11 63.8965 1504.32 62.0166 1501.93 59.624C1499.54 57.2314 1497.6 54.4401 1496.12 51.25C1494.75 47.946 1494.07 44.471 1494.07 40.8252ZM2019.53 260.942C2009.16 265.158 1999.7 268.006 1991.16 269.487C1982.61 270.968 1974.92 271.709 1968.09 271.709C1962.62 271.709 1957.89 271.367 1953.9 270.684C1949.91 270.114 1946.5 269.373 1943.65 268.462C1940.34 267.437 1937.5 266.297 1935.1 265.044C1930.09 262.196 1925.7 258.493 1921.94 253.936C1918.18 249.378 1914.77 244.479 1911.69 239.238C1908.73 233.997 1906.05 228.586 1903.66 223.003C1901.26 217.42 1898.93 212.179 1896.65 207.28L1892.38 198.223C1880.87 201.527 1870.1 205.343 1860.08 209.673C1850.17 213.888 1841.34 218.104 1833.59 222.319C1825.84 226.421 1819.29 230.238 1813.94 233.77C1808.69 237.188 1804.99 239.694 1802.83 241.289C1798.61 245.96 1793.88 250.119 1788.64 253.765C1783.4 257.41 1777.53 260.544 1771.04 263.164C1764.55 265.671 1757.31 267.607 1749.34 268.975C1741.36 270.342 1732.59 271.025 1723.02 271.025L1721.31 263.677C1732.36 261.854 1741.87 258.322 1749.85 253.081C1757.94 247.84 1764.89 241.403 1770.7 233.77C1776.51 226.022 1781.46 217.363 1785.57 207.793C1789.67 198.109 1793.31 187.912 1796.5 177.202C1798.33 171.05 1800.72 164.556 1803.68 157.72C1806.76 150.884 1810.4 144.276 1814.62 137.896C1818.95 131.401 1823.85 125.363 1829.32 119.78C1834.9 114.084 1841.22 109.299 1848.29 105.425C1846.35 101.779 1844.41 98.0762 1842.48 94.3164C1840.65 90.4427 1838.89 86.569 1837.18 82.6953C1834.79 78.138 1832.39 73.125 1830 67.6562C1827.61 62.0736 1824.76 56.9466 1821.46 52.2754C1818.26 47.4902 1814.45 43.5026 1810 40.3125C1805.68 37.1224 1800.26 35.5273 1793.77 35.5273C1789.21 35.5273 1784.71 36.04 1780.27 37.0654C1775.94 38.0908 1771.78 39.3441 1767.79 40.8252L1765.4 33.8184C1775.31 30.5143 1785.34 27.723 1795.48 25.4443C1805.73 23.0518 1815.87 21.8555 1825.9 21.8555C1830.68 21.8555 1835.41 22.1973 1840.08 22.8809C1844.75 23.4505 1849.25 24.5329 1853.58 26.1279C1857.34 27.4951 1860.99 29.7738 1864.52 32.9639C1868.05 36.04 1871.41 39.7428 1874.6 44.0723C1877.79 48.2878 1880.76 52.8451 1883.49 57.7441C1886.34 62.6432 1888.96 67.5423 1891.35 72.4414C1893.86 77.3405 1896.08 82.0117 1898.02 86.4551C1900.07 90.7845 1901.83 94.5443 1903.32 97.7344C1913.34 119.268 1923.31 140.858 1933.22 162.505C1943.13 184.038 1953.79 205.286 1965.18 226.25C1967.23 230.01 1969.4 233.713 1971.67 237.358C1974.07 241.004 1976.69 244.251 1979.54 247.1C1982.5 249.948 1985.75 252.227 1989.28 253.936C1992.81 255.645 1996.8 256.442 2001.24 256.328C2002.84 256.328 2005 256.157 2007.73 255.815C2010.58 255.474 2013.66 254.619 2016.96 253.252L2019.53 260.942ZM1857.86 125.078C1854.89 129.863 1852.16 134.819 1849.65 139.946C1847.26 145.073 1845.04 150.314 1842.99 155.669C1840.94 160.91 1839.06 166.151 1837.35 171.392C1835.64 176.632 1833.93 181.646 1832.22 186.431C1830.51 191.672 1828.63 196.799 1826.58 201.812C1824.65 206.711 1822.42 211.496 1819.92 216.167C1828.46 211.154 1838.49 205.913 1850 200.444C1861.5 194.976 1873.81 190.304 1886.91 186.431L1857.86 125.078ZM2158.73 242.314C2156 246.416 2152.64 250.461 2148.65 254.448C2144.66 258.322 2139.93 261.854 2134.47 265.044C2129 268.12 2122.79 270.57 2115.84 272.393C2108.89 274.329 2101.03 275.298 2092.25 275.298C2077.44 275.298 2064.4 272.677 2053.12 267.437C2041.95 262.082 2032.61 255.132 2025.09 246.587C2017.57 237.928 2011.87 228.187 2008 217.363C2004.24 206.54 2002.36 195.602 2002.36 184.551C2002.36 176.234 2003.16 167.86 2004.75 159.429C2006.46 150.998 2009.03 142.909 2012.44 135.161C2015.86 127.3 2020.19 119.951 2025.43 113.115C2030.67 106.279 2036.94 100.355 2044.23 95.3418C2051.52 90.2148 2059.84 86.2272 2069.18 83.3789C2078.53 80.4167 2089.01 78.9355 2100.63 78.9355C2107.24 78.9355 2113.45 79.5052 2119.26 80.6445C2125.07 81.6699 2130.36 83.0941 2135.15 84.917C2140.05 86.626 2144.43 88.6198 2148.31 90.8984C2152.3 93.0632 2155.77 95.2279 2158.73 97.3926V23.9062C2158.73 22.1973 2158.39 20.3743 2157.71 18.4375C2157.14 16.3867 2156 14.5638 2154.29 12.9688C2152.58 11.2598 2150.25 9.89258 2147.28 8.86719C2144.32 7.72786 2140.45 7.1582 2135.66 7.1582V0.493164H2208.46V246.929C2208.46 248.638 2208.75 250.461 2209.32 252.397C2210 254.334 2211.2 256.157 2212.91 257.866C2214.62 259.461 2216.95 260.828 2219.92 261.968C2222.99 263.107 2226.86 263.677 2231.54 263.677V270H2158.73V242.314ZM2104.9 257.354C2112.31 257.354 2118.8 255.986 2124.38 253.252C2129.97 250.518 2134.75 247.1 2138.74 242.998C2142.73 238.896 2145.97 234.396 2148.48 229.497C2151.1 224.484 2153.15 219.756 2154.63 215.312C2156.23 210.755 2157.31 206.825 2157.88 203.521C2158.45 200.103 2158.73 197.881 2158.73 196.855V130.034L2145.57 147.808C2145 137.44 2143.18 128.154 2140.11 119.951C2138.74 116.419 2137.03 113.001 2134.98 109.697C2132.93 106.279 2130.36 103.26 2127.29 100.64C2124.33 98.0192 2120.79 95.9115 2116.69 94.3164C2112.59 92.7214 2107.86 91.9238 2102.51 91.9238C2093.96 91.9238 2086.56 94.0885 2080.29 98.418C2074.02 102.747 2068.9 108.672 2064.91 116.191C2060.92 123.597 2057.96 132.256 2056.02 142.168C2054.09 152.08 2053.12 162.619 2053.12 173.784C2053.12 188.368 2054.49 200.9 2057.22 211.382C2060.07 221.864 2063.83 230.522 2068.5 237.358C2073.17 244.194 2078.64 249.264 2084.91 252.568C2091.17 255.758 2097.84 257.354 2104.9 257.354ZM2297.6 163.188C2297.37 165.695 2297.26 168.145 2297.26 170.537C2297.26 172.816 2297.26 175.151 2297.26 177.544C2297.26 188.368 2297.94 198.906 2299.31 209.16C2300.67 219.414 2303.18 228.529 2306.83 236.504C2310.59 244.479 2315.77 250.973 2322.38 255.986C2328.99 260.885 2337.53 263.449 2348.01 263.677C2354.74 263.677 2360.72 262.594 2365.96 260.43C2371.31 258.265 2375.98 255.303 2379.97 251.543C2383.96 247.669 2387.38 243.169 2390.23 238.042C2393.07 232.915 2395.47 227.332 2397.4 221.294L2437.74 234.966C2433.63 240.776 2428.73 246.131 2423.04 251.03C2417.34 255.929 2410.79 260.202 2403.38 263.848C2396.09 267.38 2387.89 270.171 2378.78 272.222C2369.77 274.272 2359.86 275.298 2349.04 275.298C2336.85 275.298 2325.8 273.931 2315.88 271.196C2305.97 268.576 2297.09 264.93 2289.22 260.259C2281.48 255.588 2274.7 250.119 2268.89 243.853C2263.19 237.472 2258.41 230.693 2254.53 223.516C2250.77 216.338 2247.98 208.875 2246.16 201.128C2244.34 193.381 2243.42 185.747 2243.42 178.228C2243.42 171.05 2244.22 163.701 2245.82 156.182C2247.53 148.548 2250.15 141.086 2253.68 133.794C2257.21 126.502 2261.65 119.666 2267.01 113.286C2272.48 106.792 2278.97 101.095 2286.49 96.1963C2294.12 91.2972 2302.84 87.4235 2312.64 84.5752C2322.44 81.7269 2333.43 80.3027 2345.62 80.3027C2363.51 80.3027 2378.72 82.5244 2391.25 86.9678C2403.9 91.4111 2414.27 97.4495 2422.35 105.083C2430.56 112.603 2436.65 121.375 2440.64 131.401C2444.74 141.427 2447.25 152.023 2448.16 163.188H2297.6ZM2346.65 92.2656C2338.33 92.2656 2331.27 93.8037 2325.46 96.8799C2319.76 99.9561 2315.03 104.172 2311.27 109.526C2307.51 114.881 2304.61 121.204 2302.55 128.496C2300.62 135.674 2299.19 143.421 2298.28 151.738H2394.67C2393.99 143.535 2392.73 135.845 2390.91 128.667C2389.2 121.489 2386.52 115.223 2382.88 109.868C2379.35 104.399 2374.62 100.127 2368.69 97.0508C2362.88 93.8607 2355.53 92.2656 2346.65 92.2656ZM2456.29 263.677C2460.73 263.677 2464.43 263.278 2467.4 262.48C2470.36 261.569 2472.69 260.373 2474.4 258.892C2476.23 257.41 2477.48 255.701 2478.16 253.765C2478.96 251.714 2479.36 249.549 2479.36 247.271V23.9062C2479.36 22.1973 2479.02 20.3743 2478.33 18.4375C2477.76 16.3867 2476.62 14.5638 2474.92 12.9688C2473.21 11.2598 2470.87 9.89258 2467.91 8.86719C2464.95 7.72786 2461.07 7.1582 2456.29 7.1582V0.493164H2529.09V246.929C2529.09 248.638 2529.38 250.461 2529.95 252.397C2530.63 254.334 2531.83 256.157 2533.53 257.866C2535.24 259.461 2537.58 260.828 2540.54 261.968C2543.62 263.107 2547.49 263.677 2552.16 263.677V270H2456.29V263.677ZM2618.05 163.188C2617.83 165.695 2617.71 168.145 2617.71 170.537C2617.71 172.816 2617.71 175.151 2617.71 177.544C2617.71 188.368 2618.4 198.906 2619.76 209.16C2621.13 219.414 2623.64 228.529 2627.28 236.504C2631.04 244.479 2636.23 250.973 2642.83 255.986C2649.44 260.885 2657.99 263.449 2668.47 263.677C2675.19 263.677 2681.17 262.594 2686.41 260.43C2691.77 258.265 2696.44 255.303 2700.43 251.543C2704.41 247.669 2707.83 243.169 2710.68 238.042C2713.53 232.915 2715.92 227.332 2717.86 221.294L2758.19 234.966C2754.09 240.776 2749.19 246.131 2743.49 251.03C2737.8 255.929 2731.25 260.202 2723.84 263.848C2716.55 267.38 2708.35 270.171 2699.23 272.222C2690.23 274.272 2680.32 275.298 2669.49 275.298C2657.3 275.298 2646.25 273.931 2636.34 271.196C2626.43 268.576 2617.54 264.93 2609.68 260.259C2601.93 255.588 2595.15 250.119 2589.34 243.853C2583.65 237.472 2578.86 230.693 2574.99 223.516C2571.23 216.338 2568.44 208.875 2566.61 201.128C2564.79 193.381 2563.88 185.747 2563.88 178.228C2563.88 171.05 2564.68 163.701 2566.27 156.182C2567.98 148.548 2570.6 141.086 2574.13 133.794C2577.66 126.502 2582.11 119.666 2587.46 113.286C2592.93 106.792 2599.43 101.095 2606.95 96.1963C2614.58 91.2972 2623.29 87.4235 2633.09 84.5752C2642.89 81.7269 2653.89 80.3027 2666.08 80.3027C2683.96 80.3027 2699.17 82.5244 2711.71 86.9678C2724.35 91.4111 2734.72 97.4495 2742.81 105.083C2751.01 112.603 2757.11 121.375 2761.1 131.401C2765.2 141.427 2767.7 152.023 2768.62 163.188H2618.05ZM2667.1 92.2656C2658.78 92.2656 2651.72 93.8037 2645.91 96.8799C2640.21 99.9561 2635.49 104.172 2631.73 109.526C2627.97 114.881 2625.06 121.204 2623.01 128.496C2621.07 135.674 2619.65 143.421 2618.74 151.738H2715.12C2714.44 143.535 2713.19 135.845 2711.36 128.667C2709.66 121.489 2706.98 115.223 2703.33 109.868C2699.8 104.399 2695.07 100.127 2689.15 97.0508C2683.34 93.8607 2675.99 92.2656 2667.1 92.2656ZM2902.7 86.2842H3000.79V92.6074C2996.01 92.6074 2992.13 93.1201 2989.17 94.1455C2986.21 95.057 2983.87 96.3672 2982.16 98.0762C2980.45 99.6712 2979.26 101.551 2978.57 103.716C2978 105.767 2977.72 107.988 2977.72 110.381L2977.38 242.656C2977.38 252.91 2976.18 262.082 2973.79 270.171C2971.4 278.26 2968.09 285.495 2963.88 291.875C2959.66 298.255 2954.65 303.838 2948.84 308.623C2943.03 313.408 2936.7 317.567 2929.87 321.099C2923.03 324.631 2915.8 327.593 2908.16 329.985C2900.53 332.378 2892.78 334.429 2884.92 336.138C2882.19 336.707 2879 337.22 2875.35 337.676C2871.71 338.132 2867.83 338.473 2863.73 338.701C2859.63 339.043 2855.47 339.271 2851.25 339.385C2847.15 339.613 2843.22 339.727 2839.46 339.727C2830.92 339.727 2823.51 339.556 2817.25 339.214C2810.98 338.986 2805.17 338.872 2799.81 338.872C2800.95 334.884 2801.69 330.669 2802.04 326.226C2802.49 321.782 2802.72 318.079 2802.72 315.117C2802.72 311.13 2802.38 307.37 2801.69 303.838C2801.12 300.306 2800.27 296.717 2799.13 293.071L2804.77 292.729C2807.28 298.084 2810.58 302.869 2814.68 307.085C2818.78 311.3 2823.28 314.832 2828.18 317.681C2833.2 320.643 2838.44 322.865 2843.91 324.346C2849.38 325.941 2854.67 326.738 2859.8 326.738C2869.94 326.738 2879.05 325.143 2887.14 321.953C2895.35 318.877 2902.3 314.491 2907.99 308.794C2913.8 303.097 2918.25 296.147 2921.32 287.944C2924.4 279.855 2925.94 270.854 2925.94 260.942V239.238C2923.66 243.226 2920.92 247.157 2917.73 251.03C2914.54 254.79 2910.78 258.265 2906.46 261.455C2902.24 264.645 2897.4 267.437 2891.93 269.829C2886.57 272.222 2880.48 274.045 2873.64 275.298C2864.07 277.007 2855.53 277.292 2848.01 276.152C2840.49 275.013 2833.88 272.848 2828.18 269.658C2822.49 266.468 2817.64 262.424 2813.66 257.524C2809.67 252.511 2806.42 246.986 2803.92 240.947C2801.41 234.909 2799.59 228.472 2798.45 221.636C2797.31 214.8 2796.74 207.964 2796.74 201.128V109.355C2796.74 107.646 2796.4 105.824 2795.71 103.887C2795.14 101.95 2794 100.184 2792.29 98.5889C2790.59 96.8799 2788.19 95.4557 2785.12 94.3164C2782.15 93.1771 2778.34 92.6074 2773.67 92.6074V86.2842H2869.54V92.6074C2864.98 92.6074 2861.22 93.0632 2858.26 93.9746C2855.3 94.8861 2852.91 96.0824 2851.08 97.5635C2849.38 99.0446 2848.18 100.811 2847.5 102.861C2846.81 104.798 2846.47 106.849 2846.47 109.014V211.553C2846.47 220.439 2847.5 227.959 2849.55 234.111C2851.6 240.264 2854.33 245.163 2857.75 248.809C2861.17 252.34 2865.15 254.676 2869.71 255.815C2874.27 256.955 2879.11 256.898 2884.24 255.645C2891.53 253.936 2897.8 250.916 2903.04 246.587C2908.28 242.144 2912.61 236.789 2916.03 230.522C2919.44 224.256 2921.95 217.306 2923.54 209.673C2925.14 201.925 2925.94 193.893 2925.94 185.576V110.381C2925.94 108.672 2925.65 106.792 2925.08 104.741C2924.51 102.69 2923.37 100.811 2921.67 99.1016C2920.07 97.2786 2917.73 95.7406 2914.66 94.4873C2911.7 93.234 2907.71 92.6074 2902.7 92.6074V86.2842ZM3066.68 163.188C3066.45 165.695 3066.34 168.145 3066.34 170.537C3066.34 172.816 3066.34 175.151 3066.34 177.544C3066.34 188.368 3067.02 198.906 3068.39 209.16C3069.76 219.414 3072.27 228.529 3075.91 236.504C3079.67 244.479 3084.85 250.973 3091.46 255.986C3098.07 260.885 3106.62 263.449 3117.1 263.677C3123.82 263.677 3129.8 262.594 3135.04 260.43C3140.4 258.265 3145.07 255.303 3149.06 251.543C3153.04 247.669 3156.46 243.169 3159.31 238.042C3162.16 232.915 3164.55 227.332 3166.49 221.294L3206.82 234.966C3202.72 240.776 3197.82 246.131 3192.12 251.03C3186.43 255.929 3179.87 260.202 3172.47 263.848C3165.18 267.38 3156.97 270.171 3147.86 272.222C3138.86 274.272 3128.95 275.298 3118.12 275.298C3105.93 275.298 3094.88 273.931 3084.97 271.196C3075.06 268.576 3066.17 264.93 3058.31 260.259C3050.56 255.588 3043.78 250.119 3037.97 243.853C3032.28 237.472 3027.49 230.693 3023.62 223.516C3019.86 216.338 3017.07 208.875 3015.24 201.128C3013.42 193.381 3012.51 185.747 3012.51 178.228C3012.51 171.05 3013.31 163.701 3014.9 156.182C3016.61 148.548 3019.23 141.086 3022.76 133.794C3026.29 126.502 3030.74 119.666 3036.09 113.286C3041.56 106.792 3048.05 101.095 3055.57 96.1963C3063.21 91.2972 3071.92 87.4235 3081.72 84.5752C3091.52 81.7269 3102.51 80.3027 3114.71 80.3027C3132.59 80.3027 3147.8 82.5244 3160.33 86.9678C3172.98 91.4111 3183.35 97.4495 3191.44 105.083C3199.64 112.603 3205.74 121.375 3209.72 131.401C3213.83 141.427 3216.33 152.023 3217.24 163.188H3066.68ZM3115.73 92.2656C3107.41 92.2656 3100.35 93.8037 3094.54 96.8799C3088.84 99.9561 3084.11 104.172 3080.35 109.526C3076.59 114.881 3073.69 121.204 3071.64 128.496C3069.7 135.674 3068.28 143.421 3067.37 151.738H3163.75C3163.07 143.535 3161.82 135.845 3159.99 128.667C3158.28 121.489 3155.61 115.223 3151.96 109.868C3148.43 104.399 3143.7 100.127 3137.78 97.0508C3131.97 93.8607 3124.62 92.2656 3115.73 92.2656Z" fill="#444444"/>
</svg>
